<svg width="85" height="21" viewBox="0 0 85 21" fill="none" xmlns="http://www.w3.org/2000/svg">
<rect width="53" height="21" fill="black"/>
<path d="M59.5039 11.1973C58.5391 10.9199 57.8359 10.5801 57.3945 10.1777C56.957 9.77148 56.7383 9.27148 56.7383 8.67773C56.7383 8.00586 57.0059 7.45117 57.541 7.01367C58.0801 6.57227 58.7793 6.35156 59.6387 6.35156C60.2246 6.35156 60.7461 6.46484 61.2031 6.69141C61.6641 6.91797 62.0195 7.23047 62.2695 7.62891C62.5234 8.02734 62.6504 8.46289 62.6504 8.93555H61.5195C61.5195 8.41992 61.3555 8.01562 61.0273 7.72266C60.6992 7.42578 60.2363 7.27734 59.6387 7.27734C59.084 7.27734 58.6504 7.40039 58.3379 7.64648C58.0293 7.88867 57.875 8.22656 57.875 8.66016C57.875 9.00781 58.0215 9.30273 58.3145 9.54492C58.6113 9.7832 59.1133 10.002 59.8203 10.2012C60.5312 10.4004 61.0859 10.6211 61.4844 10.8633C61.8867 11.1016 62.1836 11.3809 62.375 11.7012C62.5703 12.0215 62.668 12.3984 62.668 12.832C62.668 13.5234 62.3984 14.0781 61.8594 14.4961C61.3203 14.9102 60.5996 15.1172 59.6973 15.1172C59.1113 15.1172 58.5645 15.0059 58.0566 14.7832C57.5488 14.5566 57.1562 14.248 56.8789 13.8574C56.6055 13.4668 56.4688 13.0234 56.4688 12.5273H57.5996C57.5996 13.043 57.7891 13.4512 58.168 13.752C58.5508 14.0488 59.0605 14.1973 59.6973 14.1973C60.291 14.1973 60.7461 14.0762 61.0625 13.834C61.3789 13.5918 61.5371 13.2617 61.5371 12.8438C61.5371 12.4258 61.3906 12.1035 61.0977 11.877C60.8047 11.6465 60.2734 11.4199 59.5039 11.1973ZM65.416 7.125V8.66016H66.5996V9.49805H65.416V13.4297C65.416 13.6836 65.4688 13.875 65.5742 14.0039C65.6797 14.1289 65.8594 14.1914 66.1133 14.1914C66.2383 14.1914 66.4102 14.168 66.6289 14.1211V15C66.3438 15.0781 66.0664 15.1172 65.7969 15.1172C65.3125 15.1172 64.9473 14.9707 64.7012 14.6777C64.4551 14.3848 64.332 13.9688 64.332 13.4297V9.49805H63.1777V8.66016H64.332V7.125H65.416ZM67.4668 11.7715C67.4668 11.1504 67.5879 10.5918 67.8301 10.0957C68.0762 9.59961 68.416 9.2168 68.8496 8.94727C69.2871 8.67773 69.7852 8.54297 70.3438 8.54297C71.207 8.54297 71.9043 8.8418 72.4355 9.43945C72.9707 10.0371 73.2383 10.832 73.2383 11.8242V11.9004C73.2383 12.5176 73.1191 13.0723 72.8809 13.5645C72.6465 14.0527 72.3086 14.4336 71.8672 14.707C71.4297 14.9805 70.9258 15.1172 70.3555 15.1172C69.4961 15.1172 68.7988 14.8184 68.2637 14.2207C67.7324 13.623 67.4668 12.832 67.4668 11.8477V11.7715ZM68.5566 11.9004C68.5566 12.6035 68.7188 13.168 69.043 13.5938C69.3711 14.0195 69.8086 14.2324 70.3555 14.2324C70.9062 14.2324 71.3438 14.0176 71.668 13.5879C71.9922 13.1543 72.1543 12.5488 72.1543 11.7715C72.1543 11.0762 71.9883 10.5137 71.6562 10.084C71.3281 9.65039 70.8906 9.43359 70.3438 9.43359C69.8086 9.43359 69.377 9.64648 69.0488 10.0723C68.7207 10.498 68.5566 11.1074 68.5566 11.9004ZM77.6621 9.63281C77.498 9.60547 77.3203 9.5918 77.1289 9.5918C76.418 9.5918 75.9355 9.89453 75.6816 10.5V15H74.5977V8.66016H75.6523L75.6699 9.39258C76.0254 8.82617 76.5293 8.54297 77.1816 8.54297C77.3926 8.54297 77.5527 8.57031 77.6621 8.625V9.63281ZM81.1777 15.1172C80.3184 15.1172 79.6191 14.8359 79.0801 14.2734C78.541 13.707 78.2715 12.9512 78.2715 12.0059V11.8066C78.2715 11.1777 78.3906 10.6172 78.6289 10.125C78.8711 9.62891 79.207 9.24219 79.6367 8.96484C80.0703 8.68359 80.5391 8.54297 81.043 8.54297C81.8672 8.54297 82.5078 8.81445 82.9648 9.35742C83.4219 9.90039 83.6504 10.6777 83.6504 11.6895V12.1406H79.3555C79.3711 12.7656 79.5527 13.2715 79.9004 13.6582C80.252 14.041 80.6973 14.2324 81.2363 14.2324C81.6191 14.2324 81.9434 14.1543 82.209 13.998C82.4746 13.8418 82.707 13.6348 82.9062 13.377L83.5684 13.8926C83.0371 14.709 82.2402 15.1172 81.1777 15.1172ZM81.043 9.43359C80.6055 9.43359 80.2383 9.59375 79.9414 9.91406C79.6445 10.2305 79.4609 10.6758 79.3906 11.25H82.5664V11.168C82.5352 10.6172 82.3867 10.1914 82.1211 9.89062C81.8555 9.58594 81.4961 9.43359 81.043 9.43359Z" fill="black"/>
<path d="M11.2656 12.293C11.1602 13.1953 10.8262 13.8926 10.2637 14.3848C9.70508 14.873 8.96094 15.1172 8.03125 15.1172C7.02344 15.1172 6.21484 14.7559 5.60547 14.0332C5 13.3105 4.69727 12.3438 4.69727 11.1328V10.3125C4.69727 9.51953 4.83789 8.82227 5.11914 8.2207C5.4043 7.61914 5.80664 7.1582 6.32617 6.83789C6.8457 6.51367 7.44727 6.35156 8.13086 6.35156C9.03711 6.35156 9.76367 6.60547 10.3105 7.11328C10.8574 7.61719 11.1758 8.31641 11.2656 9.21094H10.1348C10.0371 8.53125 9.82422 8.03906 9.49609 7.73438C9.17188 7.42969 8.7168 7.27734 8.13086 7.27734C7.41211 7.27734 6.84766 7.54297 6.4375 8.07422C6.03125 8.60547 5.82812 9.36133 5.82812 10.3418V11.168C5.82812 12.0938 6.02148 12.8301 6.4082 13.377C6.79492 13.9238 7.33594 14.1973 8.03125 14.1973C8.65625 14.1973 9.13477 14.0566 9.4668 13.7754C9.80273 13.4902 10.0254 12.9961 10.1348 12.293H11.2656ZM13.8145 15H12.7305V6H13.8145V15ZM15.2676 11.7715C15.2676 11.1504 15.3887 10.5918 15.6309 10.0957C15.877 9.59961 16.2168 9.2168 16.6504 8.94727C17.0879 8.67773 17.5859 8.54297 18.1445 8.54297C19.0078 8.54297 19.7051 8.8418 20.2363 9.43945C20.7715 10.0371 21.0391 10.832 21.0391 11.8242V11.9004C21.0391 12.5176 20.9199 13.0723 20.6816 13.5645C20.4473 14.0527 20.1094 14.4336 19.668 14.707C19.2305 14.9805 18.7266 15.1172 18.1562 15.1172C17.2969 15.1172 16.5996 14.8184 16.0645 14.2207C15.5332 13.623 15.2676 12.832 15.2676 11.8477V11.7715ZM16.3574 11.9004C16.3574 12.6035 16.5195 13.168 16.8438 13.5938C17.1719 14.0195 17.6094 14.2324 18.1562 14.2324C18.707 14.2324 19.1445 14.0176 19.4688 13.5879C19.793 13.1543 19.9551 12.5488 19.9551 11.7715C19.9551 11.0762 19.7891 10.5137 19.457 10.084C19.1289 9.65039 18.6914 9.43359 18.1445 9.43359C17.6094 9.43359 17.1777 9.64648 16.8496 10.0723C16.5215 10.498 16.3574 11.1074 16.3574 11.9004ZM23.8691 7.125V8.66016H25.0527V9.49805H23.8691V13.4297C23.8691 13.6836 23.9219 13.875 24.0273 14.0039C24.1328 14.1289 24.3125 14.1914 24.5664 14.1914C24.6914 14.1914 24.8633 14.168 25.082 14.1211V15C24.7969 15.0781 24.5195 15.1172 24.25 15.1172C23.7656 15.1172 23.4004 14.9707 23.1543 14.6777C22.9082 14.3848 22.7852 13.9688 22.7852 13.4297V9.49805H21.6309V8.66016H22.7852V7.125H23.8691ZM27.4082 9.42773C27.8887 8.83789 28.5137 8.54297 29.2832 8.54297C30.623 8.54297 31.2988 9.29883 31.3105 10.8105V15H30.2266V10.8047C30.2227 10.3477 30.1172 10.0098 29.9102 9.79102C29.707 9.57227 29.3887 9.46289 28.9551 9.46289C28.6035 9.46289 28.2949 9.55664 28.0293 9.74414C27.7637 9.93164 27.5566 10.1777 27.4082 10.4824V15H26.3242V6H27.4082V9.42773ZM34.1113 15H33.0273V8.66016H34.1113V15ZM32.9395 6.97852C32.9395 6.80273 32.9922 6.6543 33.0977 6.5332C33.207 6.41211 33.3672 6.35156 33.5781 6.35156C33.7891 6.35156 33.9492 6.41211 34.0586 6.5332C34.168 6.6543 34.2227 6.80273 34.2227 6.97852C34.2227 7.1543 34.168 7.30078 34.0586 7.41797C33.9492 7.53516 33.7891 7.59375 33.5781 7.59375C33.3672 7.59375 33.207 7.53516 33.0977 7.41797C32.9922 7.30078 32.9395 7.1543 32.9395 6.97852ZM36.877 8.66016L36.9121 9.45703C37.3965 8.84766 38.0293 8.54297 38.8105 8.54297C40.1504 8.54297 40.8262 9.29883 40.8379 10.8105V15H39.7539V10.8047C39.75 10.3477 39.6445 10.0098 39.4375 9.79102C39.2344 9.57227 38.916 9.46289 38.4824 9.46289C38.1309 9.46289 37.8223 9.55664 37.5566 9.74414C37.291 9.93164 37.084 10.1777 36.9355 10.4824V15H35.8516V8.66016H36.877ZM42.2148 11.7773C42.2148 10.7891 42.4434 10.0039 42.9004 9.42188C43.3574 8.83594 43.9629 8.54297 44.7168 8.54297C45.4902 8.54297 46.0938 8.81641 46.5273 9.36328L46.5801 8.66016H47.5703V14.8477C47.5703 15.668 47.3262 16.3145 46.8379 16.7871C46.3535 17.2598 45.7012 17.4961 44.8809 17.4961C44.4238 17.4961 43.9766 17.3984 43.5391 17.2031C43.1016 17.0078 42.7676 16.7402 42.5371 16.4004L43.0996 15.75C43.5645 16.3242 44.1328 16.6113 44.8047 16.6113C45.332 16.6113 45.7422 16.4629 46.0352 16.166C46.332 15.8691 46.4805 15.4512 46.4805 14.9121V14.3672C46.0469 14.8672 45.4551 15.1172 44.7051 15.1172C43.9629 15.1172 43.3613 14.8184 42.9004 14.2207C42.4434 13.623 42.2148 12.8086 42.2148 11.7773ZM43.3047 11.9004C43.3047 12.6152 43.4512 13.1777 43.7441 13.5879C44.0371 13.9941 44.4473 14.1973 44.9746 14.1973C45.6582 14.1973 46.1602 13.8867 46.4805 13.2656V10.3711C46.1484 9.76562 45.6504 9.46289 44.9863 9.46289C44.459 9.46289 44.0469 9.66797 43.75 10.0781C43.4531 10.4883 43.3047 11.0957 43.3047 11.9004Z" fill="white"/>
</svg>
